<svg width="570" height="325" viewBox="0 0 570 325" fill="none" xmlns="http://www.w3.org/2000/svg">
<g filter="url(#filter0_d_14_52)">
<path d="M0 20C0 8.95431 8.95431 0 20 0H536C547.046 0 556 8.9543 556 20V291C556 302.046 547.046 311 536 311H20C8.95431 311 0 302.046 0 291V20Z" fill="#FFF1E3"/>
<path d="M1.5 20C1.5 9.78274 9.78273 1.5 20 1.5H536C546.217 1.5 554.5 9.78273 554.5 20V291C554.5 301.217 546.217 309.5 536 309.5H20C9.78273 309.5 1.5 301.217 1.5 291V20Z" stroke="#FF372F" stroke-width="3"/>
</g>
<path d="M92.1135 32.6587C92.1135 28.0157 95.8774 24.2518 100.52 24.2518H518.661C523.304 24.2518 527.068 28.0157 527.068 32.6587C527.068 37.3017 523.304 41.0656 518.661 41.0656H100.52C95.8774 41.0656 92.1135 37.3017 92.1135 32.6587Z" fill="#FFF1E3" stroke="#FF372F"/>
<ellipse cx="26.8522" cy="32.6587" rx="4.73864" ry="4.45346" fill="#FF372F"/>
<ellipse cx="64.7613" cy="32.6587" rx="4.73864" ry="4.45346" fill="#FF372F"/>
<ellipse cx="45.8068" cy="32.6587" rx="4.73864" ry="4.45346" fill="#FF372F"/>
<defs>
<filter id="filter0_d_14_52" x="0" y="0" width="570" height="325" filterUnits="userSpaceOnUse" color-interpolation-filters="sRGB">
<feFlood flood-opacity="0" result="BackgroundImageFix"/>
<feColorMatrix in="SourceAlpha" type="matrix" values="0 0 0 0 0 0 0 0 0 0 0 0 0 0 0 0 0 0 127 0" result="hardAlpha"/>
<feOffset dx="10" dy="10"/>
<feGaussianBlur stdDeviation="2"/>
<feComposite in2="hardAlpha" operator="out"/>
<feColorMatrix type="matrix" values="0 0 0 0 1 0 0 0 0 0.215686 0 0 0 0 0.184314 0 0 0 1 0"/>
<feBlend mode="normal" in2="BackgroundImageFix" result="effect1_dropShadow_14_52"/>
<feBlend mode="normal" in="SourceGraphic" in2="effect1_dropShadow_14_52" result="shape"/>
</filter>
</defs>
</svg>
